<svg xmlns="http://www.w3.org/2000/svg" xmlns:xlink="http://www.w3.org/1999/xlink" width="260" zoomAndPan="magnify" viewBox="0 0 194.87999 195.000001" height="260" preserveAspectRatio="xMidYMid meet" version="1.0"><defs><g/><clipPath id="87ffec5390"><path d="M 37.914062 37.824219 L 156.386719 37.824219 L 156.386719 156.296875 L 37.914062 156.296875 Z M 37.914062 37.824219 " clip-rule="nonzero"/></clipPath><clipPath id="ecdbe2a698"><path d="M 97.152344 37.824219 C 64.4375 37.824219 37.914062 64.34375 37.914062 97.0625 C 37.914062 129.777344 64.4375 156.296875 97.152344 156.296875 C 129.867188 156.296875 156.386719 129.777344 156.386719 97.0625 C 156.386719 64.34375 129.867188 37.824219 97.152344 37.824219 " clip-rule="nonzero"/></clipPath><linearGradient x1="-45.074058" gradientTransform="matrix(0.185115, 0, 0, 0.185115, 37.91453, 37.823846)" y1="64.372443" x2="685.074076" gradientUnits="userSpaceOnUse" y2="575.627543" id="a594b788a1"><stop stop-opacity="1" stop-color="rgb(13.299561%, 0%, 39.199829%)" offset="0"/><stop stop-opacity="1" stop-color="rgb(13.479614%, 0.0991821%, 39.43634%)" offset="0.00390625"/><stop stop-opacity="1" stop-color="rgb(13.661194%, 0.198364%, 39.674377%)" offset="0.0078125"/><stop stop-opacity="1" stop-color="rgb(13.841248%, 0.297546%, 39.910889%)" offset="0.0117188"/><stop stop-opacity="1" stop-color="rgb(14.022827%, 0.398254%, 40.148926%)" offset="0.015625"/><stop stop-opacity="1" stop-color="rgb(14.202881%, 0.497437%, 40.386963%)" offset="0.0195312"/><stop stop-opacity="1" stop-color="rgb(14.38446%, 0.596619%, 40.625%)" offset="0.0234375"/><stop stop-opacity="1" stop-color="rgb(14.564514%, 0.695801%, 40.861511%)" offset="0.0273437"/><stop stop-opacity="1" stop-color="rgb(14.746094%, 0.796509%, 41.099548%)" offset="0.03125"/><stop stop-opacity="1" stop-color="rgb(14.926147%, 0.895691%, 41.33606%)" offset="0.0351562"/><stop stop-opacity="1" stop-color="rgb(15.107727%, 0.994873%, 41.574097%)" offset="0.0390625"/><stop stop-opacity="1" stop-color="rgb(15.287781%, 1.094055%, 41.810608%)" offset="0.0429688"/><stop stop-opacity="1" stop-color="rgb(15.46936%, 1.194763%, 42.048645%)" offset="0.046875"/><stop stop-opacity="1" stop-color="rgb(15.649414%, 1.293945%, 42.286682%)" offset="0.0507812"/><stop stop-opacity="1" stop-color="rgb(15.830994%, 1.393127%, 42.524719%)" offset="0.0546875"/><stop stop-opacity="1" stop-color="rgb(16.011047%, 1.49231%, 42.76123%)" offset="0.0585938"/><stop stop-opacity="1" stop-color="rgb(16.192627%, 1.593018%, 42.999268%)" offset="0.0625"/><stop stop-opacity="1" stop-color="rgb(16.372681%, 1.6922%, 43.235779%)" offset="0.0664062"/><stop stop-opacity="1" stop-color="rgb(16.55426%, 1.792908%, 43.473816%)" offset="0.0703125"/><stop stop-opacity="1" stop-color="rgb(16.734314%, 1.89209%, 43.711853%)" offset="0.0742188"/><stop stop-opacity="1" stop-color="rgb(16.915894%, 1.991272%, 43.94989%)" offset="0.078125"/><stop stop-opacity="1" stop-color="rgb(17.095947%, 2.090454%, 44.186401%)" offset="0.0820312"/><stop stop-opacity="1" stop-color="rgb(17.277527%, 2.191162%, 44.424438%)" offset="0.0859375"/><stop stop-opacity="1" stop-color="rgb(17.457581%, 2.290344%, 44.66095%)" offset="0.0898438"/><stop stop-opacity="1" stop-color="rgb(17.63916%, 2.389526%, 44.898987%)" offset="0.09375"/><stop stop-opacity="1" stop-color="rgb(17.82074%, 2.488708%, 45.135498%)" offset="0.0976562"/><stop stop-opacity="1" stop-color="rgb(18.002319%, 2.589417%, 45.373535%)" offset="0.101563"/><stop stop-opacity="1" stop-color="rgb(18.182373%, 2.688599%, 45.611572%)" offset="0.105469"/><stop stop-opacity="1" stop-color="rgb(18.363953%, 2.787781%, 45.849609%)" offset="0.109375"/><stop stop-opacity="1" stop-color="rgb(18.544006%, 2.886963%, 46.086121%)" offset="0.113281"/><stop stop-opacity="1" stop-color="rgb(18.725586%, 2.987671%, 46.324158%)" offset="0.117188"/><stop stop-opacity="1" stop-color="rgb(18.90564%, 3.086853%, 46.560669%)" offset="0.121094"/><stop stop-opacity="1" stop-color="rgb(19.087219%, 3.186035%, 46.798706%)" offset="0.125"/><stop stop-opacity="1" stop-color="rgb(19.267273%, 3.285217%, 47.036743%)" offset="0.128906"/><stop stop-opacity="1" stop-color="rgb(19.448853%, 3.385925%, 47.27478%)" offset="0.132812"/><stop stop-opacity="1" stop-color="rgb(19.628906%, 3.485107%, 47.511292%)" offset="0.136719"/><stop stop-opacity="1" stop-color="rgb(19.810486%, 3.585815%, 47.749329%)" offset="0.140625"/><stop stop-opacity="1" stop-color="rgb(19.99054%, 3.684998%, 47.98584%)" offset="0.144531"/><stop stop-opacity="1" stop-color="rgb(20.172119%, 3.78418%, 48.223877%)" offset="0.148438"/><stop stop-opacity="1" stop-color="rgb(20.352173%, 3.883362%, 48.461914%)" offset="0.152344"/><stop stop-opacity="1" stop-color="rgb(20.533752%, 3.98407%, 48.699951%)" offset="0.15625"/><stop stop-opacity="1" stop-color="rgb(20.713806%, 4.083252%, 48.936462%)" offset="0.160156"/><stop stop-opacity="1" stop-color="rgb(20.895386%, 4.182434%, 49.1745%)" offset="0.164062"/><stop stop-opacity="1" stop-color="rgb(21.075439%, 4.281616%, 49.411011%)" offset="0.167969"/><stop stop-opacity="1" stop-color="rgb(21.257019%, 4.382324%, 49.649048%)" offset="0.171875"/><stop stop-opacity="1" stop-color="rgb(21.437073%, 4.481506%, 49.885559%)" offset="0.175781"/><stop stop-opacity="1" stop-color="rgb(21.618652%, 4.580688%, 50.123596%)" offset="0.179688"/><stop stop-opacity="1" stop-color="rgb(21.798706%, 4.679871%, 50.361633%)" offset="0.183594"/><stop stop-opacity="1" stop-color="rgb(21.980286%, 4.780579%, 50.59967%)" offset="0.1875"/><stop stop-opacity="1" stop-color="rgb(22.160339%, 4.879761%, 50.836182%)" offset="0.191406"/><stop stop-opacity="1" stop-color="rgb(22.341919%, 4.980469%, 51.074219%)" offset="0.195312"/><stop stop-opacity="1" stop-color="rgb(22.521973%, 5.079651%, 51.31073%)" offset="0.199219"/><stop stop-opacity="1" stop-color="rgb(22.703552%, 5.178833%, 51.548767%)" offset="0.203125"/><stop stop-opacity="1" stop-color="rgb(22.883606%, 5.278015%, 51.786804%)" offset="0.207031"/><stop stop-opacity="1" stop-color="rgb(23.065186%, 5.378723%, 52.024841%)" offset="0.210938"/><stop stop-opacity="1" stop-color="rgb(23.245239%, 5.477905%, 52.261353%)" offset="0.214844"/><stop stop-opacity="1" stop-color="rgb(23.426819%, 5.577087%, 52.49939%)" offset="0.21875"/><stop stop-opacity="1" stop-color="rgb(23.606873%, 5.67627%, 52.735901%)" offset="0.222656"/><stop stop-opacity="1" stop-color="rgb(23.788452%, 5.776978%, 52.973938%)" offset="0.226562"/><stop stop-opacity="1" stop-color="rgb(23.968506%, 5.87616%, 53.210449%)" offset="0.230469"/><stop stop-opacity="1" stop-color="rgb(24.150085%, 5.975342%, 53.448486%)" offset="0.234375"/><stop stop-opacity="1" stop-color="rgb(24.331665%, 6.074524%, 53.686523%)" offset="0.238281"/><stop stop-opacity="1" stop-color="rgb(24.513245%, 6.175232%, 53.924561%)" offset="0.242188"/><stop stop-opacity="1" stop-color="rgb(24.693298%, 6.274414%, 54.161072%)" offset="0.246094"/><stop stop-opacity="1" stop-color="rgb(24.874878%, 6.373596%, 54.399109%)" offset="0.25"/><stop stop-opacity="1" stop-color="rgb(25.054932%, 6.472778%, 54.63562%)" offset="0.253906"/><stop stop-opacity="1" stop-color="rgb(25.236511%, 6.573486%, 54.873657%)" offset="0.257812"/><stop stop-opacity="1" stop-color="rgb(25.416565%, 6.672668%, 55.111694%)" offset="0.261719"/><stop stop-opacity="1" stop-color="rgb(25.598145%, 6.773376%, 55.349731%)" offset="0.265625"/><stop stop-opacity="1" stop-color="rgb(25.778198%, 6.872559%, 55.586243%)" offset="0.269531"/><stop stop-opacity="1" stop-color="rgb(25.959778%, 6.971741%, 55.82428%)" offset="0.273438"/><stop stop-opacity="1" stop-color="rgb(26.139832%, 7.070923%, 56.060791%)" offset="0.277344"/><stop stop-opacity="1" stop-color="rgb(26.321411%, 7.171631%, 56.298828%)" offset="0.28125"/><stop stop-opacity="1" stop-color="rgb(26.501465%, 7.270813%, 56.536865%)" offset="0.285156"/><stop stop-opacity="1" stop-color="rgb(26.683044%, 7.369995%, 56.774902%)" offset="0.289063"/><stop stop-opacity="1" stop-color="rgb(26.863098%, 7.469177%, 57.011414%)" offset="0.292969"/><stop stop-opacity="1" stop-color="rgb(27.044678%, 7.569885%, 57.249451%)" offset="0.296875"/><stop stop-opacity="1" stop-color="rgb(27.224731%, 7.669067%, 57.485962%)" offset="0.300781"/><stop stop-opacity="1" stop-color="rgb(27.406311%, 7.76825%, 57.723999%)" offset="0.304688"/><stop stop-opacity="1" stop-color="rgb(27.586365%, 7.867432%, 57.96051%)" offset="0.308594"/><stop stop-opacity="1" stop-color="rgb(27.767944%, 7.96814%, 58.198547%)" offset="0.3125"/><stop stop-opacity="1" stop-color="rgb(27.947998%, 8.067322%, 58.436584%)" offset="0.316406"/><stop stop-opacity="1" stop-color="rgb(28.129578%, 8.166504%, 58.674622%)" offset="0.320312"/><stop stop-opacity="1" stop-color="rgb(28.309631%, 8.265686%, 58.911133%)" offset="0.324219"/><stop stop-opacity="1" stop-color="rgb(28.491211%, 8.366394%, 59.14917%)" offset="0.328125"/><stop stop-opacity="1" stop-color="rgb(28.671265%, 8.465576%, 59.385681%)" offset="0.332031"/><stop stop-opacity="1" stop-color="rgb(28.852844%, 8.566284%, 59.623718%)" offset="0.335938"/><stop stop-opacity="1" stop-color="rgb(29.032898%, 8.665466%, 59.861755%)" offset="0.339844"/><stop stop-opacity="1" stop-color="rgb(29.214478%, 8.764648%, 60.099792%)" offset="0.34375"/><stop stop-opacity="1" stop-color="rgb(29.394531%, 8.863831%, 60.336304%)" offset="0.347656"/><stop stop-opacity="1" stop-color="rgb(29.576111%, 8.964539%, 60.574341%)" offset="0.351563"/><stop stop-opacity="1" stop-color="rgb(29.756165%, 9.063721%, 60.810852%)" offset="0.355469"/><stop stop-opacity="1" stop-color="rgb(29.937744%, 9.162903%, 61.048889%)" offset="0.359375"/><stop stop-opacity="1" stop-color="rgb(30.117798%, 9.262085%, 61.286926%)" offset="0.363281"/><stop stop-opacity="1" stop-color="rgb(30.299377%, 9.362793%, 61.524963%)" offset="0.367188"/><stop stop-opacity="1" stop-color="rgb(30.479431%, 9.461975%, 61.761475%)" offset="0.371094"/><stop stop-opacity="1" stop-color="rgb(30.661011%, 9.561157%, 61.999512%)" offset="0.375"/><stop stop-opacity="1" stop-color="rgb(30.84259%, 9.660339%, 62.236023%)" offset="0.378906"/><stop stop-opacity="1" stop-color="rgb(31.02417%, 9.761047%, 62.47406%)" offset="0.382813"/><stop stop-opacity="1" stop-color="rgb(31.204224%, 9.860229%, 62.710571%)" offset="0.386719"/><stop stop-opacity="1" stop-color="rgb(31.385803%, 9.959412%, 62.948608%)" offset="0.390625"/><stop stop-opacity="1" stop-color="rgb(31.565857%, 10.058594%, 63.186646%)" offset="0.394531"/><stop stop-opacity="1" stop-color="rgb(31.747437%, 10.159302%, 63.424683%)" offset="0.398438"/><stop stop-opacity="1" stop-color="rgb(31.92749%, 10.258484%, 63.661194%)" offset="0.402344"/><stop stop-opacity="1" stop-color="rgb(32.10907%, 10.359192%, 63.899231%)" offset="0.40625"/><stop stop-opacity="1" stop-color="rgb(32.289124%, 10.458374%, 64.135742%)" offset="0.410156"/><stop stop-opacity="1" stop-color="rgb(32.470703%, 10.557556%, 64.373779%)" offset="0.414063"/><stop stop-opacity="1" stop-color="rgb(32.650757%, 10.656738%, 64.611816%)" offset="0.417969"/><stop stop-opacity="1" stop-color="rgb(32.832336%, 10.757446%, 64.849854%)" offset="0.421875"/><stop stop-opacity="1" stop-color="rgb(33.01239%, 10.856628%, 65.086365%)" offset="0.425781"/><stop stop-opacity="1" stop-color="rgb(33.19397%, 10.955811%, 65.324402%)" offset="0.429688"/><stop stop-opacity="1" stop-color="rgb(33.374023%, 11.054993%, 65.560913%)" offset="0.433594"/><stop stop-opacity="1" stop-color="rgb(33.555603%, 11.155701%, 65.79895%)" offset="0.4375"/><stop stop-opacity="1" stop-color="rgb(33.735657%, 11.254883%, 66.035461%)" offset="0.441406"/><stop stop-opacity="1" stop-color="rgb(33.917236%, 11.354065%, 66.273499%)" offset="0.445313"/><stop stop-opacity="1" stop-color="rgb(34.09729%, 11.453247%, 66.511536%)" offset="0.449219"/><stop stop-opacity="1" stop-color="rgb(34.27887%, 11.553955%, 66.749573%)" offset="0.453125"/><stop stop-opacity="1" stop-color="rgb(34.458923%, 11.653137%, 66.986084%)" offset="0.457031"/><stop stop-opacity="1" stop-color="rgb(34.640503%, 11.753845%, 67.224121%)" offset="0.460938"/><stop stop-opacity="1" stop-color="rgb(34.820557%, 11.853027%, 67.460632%)" offset="0.464844"/><stop stop-opacity="1" stop-color="rgb(35.002136%, 11.952209%, 67.698669%)" offset="0.46875"/><stop stop-opacity="1" stop-color="rgb(35.18219%, 12.051392%, 67.936707%)" offset="0.472656"/><stop stop-opacity="1" stop-color="rgb(35.36377%, 12.1521%, 68.174744%)" offset="0.476562"/><stop stop-opacity="1" stop-color="rgb(35.543823%, 12.251282%, 68.411255%)" offset="0.480469"/><stop stop-opacity="1" stop-color="rgb(35.725403%, 12.350464%, 68.649292%)" offset="0.484375"/><stop stop-opacity="1" stop-color="rgb(35.905457%, 12.449646%, 68.885803%)" offset="0.488281"/><stop stop-opacity="1" stop-color="rgb(36.087036%, 12.550354%, 69.12384%)" offset="0.492187"/><stop stop-opacity="1" stop-color="rgb(36.26709%, 12.649536%, 69.361877%)" offset="0.496094"/><stop stop-opacity="1" stop-color="rgb(36.448669%, 12.748718%, 69.599915%)" offset="0.5"/><stop stop-opacity="1" stop-color="rgb(36.628723%, 12.8479%, 69.836426%)" offset="0.503906"/><stop stop-opacity="1" stop-color="rgb(36.810303%, 12.948608%, 70.074463%)" offset="0.507812"/><stop stop-opacity="1" stop-color="rgb(36.990356%, 13.047791%, 70.310974%)" offset="0.511719"/><stop stop-opacity="1" stop-color="rgb(37.171936%, 13.146973%, 70.549011%)" offset="0.515625"/><stop stop-opacity="1" stop-color="rgb(37.353516%, 13.246155%, 70.785522%)" offset="0.519531"/><stop stop-opacity="1" stop-color="rgb(37.535095%, 13.346863%, 71.02356%)" offset="0.523438"/><stop stop-opacity="1" stop-color="rgb(37.715149%, 13.446045%, 71.261597%)" offset="0.527344"/><stop stop-opacity="1" stop-color="rgb(37.896729%, 13.546753%, 71.499634%)" offset="0.53125"/><stop stop-opacity="1" stop-color="rgb(38.076782%, 13.645935%, 71.736145%)" offset="0.535156"/><stop stop-opacity="1" stop-color="rgb(38.258362%, 13.745117%, 71.974182%)" offset="0.539062"/><stop stop-opacity="1" stop-color="rgb(38.438416%, 13.844299%, 72.210693%)" offset="0.542969"/><stop stop-opacity="1" stop-color="rgb(38.619995%, 13.945007%, 72.44873%)" offset="0.546875"/><stop stop-opacity="1" stop-color="rgb(38.800049%, 14.044189%, 72.686768%)" offset="0.550781"/><stop stop-opacity="1" stop-color="rgb(38.981628%, 14.143372%, 72.924805%)" offset="0.554688"/><stop stop-opacity="1" stop-color="rgb(39.161682%, 14.242554%, 73.161316%)" offset="0.558594"/><stop stop-opacity="1" stop-color="rgb(39.343262%, 14.343262%, 73.399353%)" offset="0.5625"/><stop stop-opacity="1" stop-color="rgb(39.523315%, 14.442444%, 73.635864%)" offset="0.566406"/><stop stop-opacity="1" stop-color="rgb(39.704895%, 14.541626%, 73.873901%)" offset="0.570312"/><stop stop-opacity="1" stop-color="rgb(39.884949%, 14.640808%, 74.111938%)" offset="0.574219"/><stop stop-opacity="1" stop-color="rgb(40.066528%, 14.741516%, 74.349976%)" offset="0.578125"/><stop stop-opacity="1" stop-color="rgb(40.246582%, 14.840698%, 74.586487%)" offset="0.582031"/><stop stop-opacity="1" stop-color="rgb(40.428162%, 14.93988%, 74.824524%)" offset="0.585938"/><stop stop-opacity="1" stop-color="rgb(40.608215%, 15.039062%, 75.061035%)" offset="0.589844"/><stop stop-opacity="1" stop-color="rgb(40.789795%, 15.139771%, 75.299072%)" offset="0.59375"/><stop stop-opacity="1" stop-color="rgb(40.969849%, 15.238953%, 75.535583%)" offset="0.597656"/><stop stop-opacity="1" stop-color="rgb(41.151428%, 15.339661%, 75.773621%)" offset="0.601562"/><stop stop-opacity="1" stop-color="rgb(41.331482%, 15.438843%, 76.011658%)" offset="0.605469"/><stop stop-opacity="1" stop-color="rgb(41.513062%, 15.538025%, 76.249695%)" offset="0.609375"/><stop stop-opacity="1" stop-color="rgb(41.693115%, 15.637207%, 76.486206%)" offset="0.613281"/><stop stop-opacity="1" stop-color="rgb(41.874695%, 15.737915%, 76.724243%)" offset="0.617188"/><stop stop-opacity="1" stop-color="rgb(42.054749%, 15.837097%, 76.960754%)" offset="0.621094"/><stop stop-opacity="1" stop-color="rgb(42.236328%, 15.936279%, 77.198792%)" offset="0.625"/><stop stop-opacity="1" stop-color="rgb(42.416382%, 16.035461%, 77.436829%)" offset="0.628906"/><stop stop-opacity="1" stop-color="rgb(42.597961%, 16.136169%, 77.674866%)" offset="0.632812"/><stop stop-opacity="1" stop-color="rgb(42.778015%, 16.235352%, 77.911377%)" offset="0.636719"/><stop stop-opacity="1" stop-color="rgb(42.959595%, 16.334534%, 78.149414%)" offset="0.640625"/><stop stop-opacity="1" stop-color="rgb(43.139648%, 16.433716%, 78.385925%)" offset="0.644531"/><stop stop-opacity="1" stop-color="rgb(43.321228%, 16.534424%, 78.623962%)" offset="0.648437"/><stop stop-opacity="1" stop-color="rgb(43.501282%, 16.633606%, 78.860474%)" offset="0.652344"/><stop stop-opacity="1" stop-color="rgb(43.682861%, 16.734314%, 79.098511%)" offset="0.65625"/><stop stop-opacity="1" stop-color="rgb(43.864441%, 16.833496%, 79.336548%)" offset="0.660156"/><stop stop-opacity="1" stop-color="rgb(44.046021%, 16.932678%, 79.574585%)" offset="0.664062"/><stop stop-opacity="1" stop-color="rgb(44.226074%, 17.03186%, 79.811096%)" offset="0.667969"/><stop stop-opacity="1" stop-color="rgb(44.407654%, 17.132568%, 80.049133%)" offset="0.671875"/><stop stop-opacity="1" stop-color="rgb(44.587708%, 17.23175%, 80.285645%)" offset="0.675781"/><stop stop-opacity="1" stop-color="rgb(44.769287%, 17.330933%, 80.523682%)" offset="0.679687"/><stop stop-opacity="1" stop-color="rgb(44.949341%, 17.430115%, 80.761719%)" offset="0.683594"/><stop stop-opacity="1" stop-color="rgb(45.13092%, 17.530823%, 80.999756%)" offset="0.6875"/><stop stop-opacity="1" stop-color="rgb(45.310974%, 17.630005%, 81.236267%)" offset="0.691406"/><stop stop-opacity="1" stop-color="rgb(45.492554%, 17.729187%, 81.474304%)" offset="0.695313"/><stop stop-opacity="1" stop-color="rgb(45.672607%, 17.828369%, 81.710815%)" offset="0.699219"/><stop stop-opacity="1" stop-color="rgb(45.854187%, 17.929077%, 81.948853%)" offset="0.703125"/><stop stop-opacity="1" stop-color="rgb(46.034241%, 18.028259%, 82.18689%)" offset="0.707031"/><stop stop-opacity="1" stop-color="rgb(46.21582%, 18.127441%, 82.424927%)" offset="0.710938"/><stop stop-opacity="1" stop-color="rgb(46.395874%, 18.226624%, 82.661438%)" offset="0.714844"/><stop stop-opacity="1" stop-color="rgb(46.577454%, 18.327332%, 82.899475%)" offset="0.71875"/><stop stop-opacity="1" stop-color="rgb(46.757507%, 18.426514%, 83.135986%)" offset="0.722656"/><stop stop-opacity="1" stop-color="rgb(46.939087%, 18.527222%, 83.374023%)" offset="0.726562"/><stop stop-opacity="1" stop-color="rgb(47.119141%, 18.626404%, 83.610535%)" offset="0.730469"/><stop stop-opacity="1" stop-color="rgb(47.30072%, 18.725586%, 83.848572%)" offset="0.734375"/><stop stop-opacity="1" stop-color="rgb(47.480774%, 18.824768%, 84.086609%)" offset="0.738281"/><stop stop-opacity="1" stop-color="rgb(47.662354%, 18.925476%, 84.324646%)" offset="0.742188"/><stop stop-opacity="1" stop-color="rgb(47.842407%, 19.024658%, 84.561157%)" offset="0.746094"/><stop stop-opacity="1" stop-color="rgb(48.023987%, 19.12384%, 84.799194%)" offset="0.75"/><stop stop-opacity="1" stop-color="rgb(48.204041%, 19.223022%, 85.035706%)" offset="0.753906"/><stop stop-opacity="1" stop-color="rgb(48.38562%, 19.32373%, 85.273743%)" offset="0.757812"/><stop stop-opacity="1" stop-color="rgb(48.565674%, 19.422913%, 85.51178%)" offset="0.761719"/><stop stop-opacity="1" stop-color="rgb(48.747253%, 19.522095%, 85.749817%)" offset="0.765625"/><stop stop-opacity="1" stop-color="rgb(48.927307%, 19.621277%, 85.986328%)" offset="0.769531"/><stop stop-opacity="1" stop-color="rgb(49.108887%, 19.721985%, 86.224365%)" offset="0.773437"/><stop stop-opacity="1" stop-color="rgb(49.28894%, 19.821167%, 86.460876%)" offset="0.777344"/><stop stop-opacity="1" stop-color="rgb(49.47052%, 19.920349%, 86.698914%)" offset="0.78125"/><stop stop-opacity="1" stop-color="rgb(49.650574%, 20.019531%, 86.936951%)" offset="0.785156"/><stop stop-opacity="1" stop-color="rgb(49.832153%, 20.120239%, 87.174988%)" offset="0.789062"/><stop stop-opacity="1" stop-color="rgb(50.012207%, 20.219421%, 87.411499%)" offset="0.792969"/><stop stop-opacity="1" stop-color="rgb(50.193787%, 20.320129%, 87.649536%)" offset="0.796875"/><stop stop-opacity="1" stop-color="rgb(50.375366%, 20.419312%, 87.886047%)" offset="0.800781"/><stop stop-opacity="1" stop-color="rgb(50.556946%, 20.518494%, 88.124084%)" offset="0.804687"/><stop stop-opacity="1" stop-color="rgb(50.737%, 20.617676%, 88.360596%)" offset="0.808594"/><stop stop-opacity="1" stop-color="rgb(50.918579%, 20.718384%, 88.598633%)" offset="0.8125"/><stop stop-opacity="1" stop-color="rgb(51.098633%, 20.817566%, 88.83667%)" offset="0.816406"/><stop stop-opacity="1" stop-color="rgb(51.280212%, 20.916748%, 89.074707%)" offset="0.820313"/><stop stop-opacity="1" stop-color="rgb(51.460266%, 21.01593%, 89.311218%)" offset="0.824219"/><stop stop-opacity="1" stop-color="rgb(51.641846%, 21.116638%, 89.549255%)" offset="0.828125"/><stop stop-opacity="1" stop-color="rgb(51.821899%, 21.21582%, 89.785767%)" offset="0.832031"/><stop stop-opacity="1" stop-color="rgb(52.003479%, 21.315002%, 90.023804%)" offset="0.835938"/><stop stop-opacity="1" stop-color="rgb(52.183533%, 21.414185%, 90.261841%)" offset="0.839844"/><stop stop-opacity="1" stop-color="rgb(52.365112%, 21.514893%, 90.499878%)" offset="0.84375"/><stop stop-opacity="1" stop-color="rgb(52.545166%, 21.614075%, 90.736389%)" offset="0.847656"/><stop stop-opacity="1" stop-color="rgb(52.726746%, 21.714783%, 90.974426%)" offset="0.851562"/><stop stop-opacity="1" stop-color="rgb(52.906799%, 21.813965%, 91.210938%)" offset="0.855469"/><stop stop-opacity="1" stop-color="rgb(53.088379%, 21.913147%, 91.448975%)" offset="0.859375"/><stop stop-opacity="1" stop-color="rgb(53.268433%, 22.012329%, 91.685486%)" offset="0.863281"/><stop stop-opacity="1" stop-color="rgb(53.450012%, 22.113037%, 91.923523%)" offset="0.867188"/><stop stop-opacity="1" stop-color="rgb(53.630066%, 22.212219%, 92.16156%)" offset="0.871094"/><stop stop-opacity="1" stop-color="rgb(53.811646%, 22.311401%, 92.399597%)" offset="0.875"/><stop stop-opacity="1" stop-color="rgb(53.991699%, 22.410583%, 92.636108%)" offset="0.878906"/><stop stop-opacity="1" stop-color="rgb(54.173279%, 22.511292%, 92.874146%)" offset="0.882812"/><stop stop-opacity="1" stop-color="rgb(54.353333%, 22.610474%, 93.110657%)" offset="0.886719"/><stop stop-opacity="1" stop-color="rgb(54.534912%, 22.709656%, 93.348694%)" offset="0.890625"/><stop stop-opacity="1" stop-color="rgb(54.714966%, 22.808838%, 93.586731%)" offset="0.894531"/><stop stop-opacity="1" stop-color="rgb(54.896545%, 22.909546%, 93.824768%)" offset="0.898438"/><stop stop-opacity="1" stop-color="rgb(55.076599%, 23.008728%, 94.061279%)" offset="0.902344"/><stop stop-opacity="1" stop-color="rgb(55.258179%, 23.10791%, 94.299316%)" offset="0.90625"/><stop stop-opacity="1" stop-color="rgb(55.438232%, 23.207092%, 94.535828%)" offset="0.910156"/><stop stop-opacity="1" stop-color="rgb(55.619812%, 23.3078%, 94.773865%)" offset="0.914062"/><stop stop-opacity="1" stop-color="rgb(55.799866%, 23.406982%, 95.011902%)" offset="0.917969"/><stop stop-opacity="1" stop-color="rgb(55.981445%, 23.50769%, 95.249939%)" offset="0.921875"/><stop stop-opacity="1" stop-color="rgb(56.161499%, 23.606873%, 95.48645%)" offset="0.925781"/><stop stop-opacity="1" stop-color="rgb(56.343079%, 23.706055%, 95.724487%)" offset="0.929687"/><stop stop-opacity="1" stop-color="rgb(56.524658%, 23.805237%, 95.960999%)" offset="0.933594"/><stop stop-opacity="1" stop-color="rgb(56.706238%, 23.905945%, 96.199036%)" offset="0.9375"/><stop stop-opacity="1" stop-color="rgb(56.886292%, 24.005127%, 96.435547%)" offset="0.941406"/><stop stop-opacity="1" stop-color="rgb(57.067871%, 24.104309%, 96.673584%)" offset="0.945313"/><stop stop-opacity="1" stop-color="rgb(57.247925%, 24.203491%, 96.911621%)" offset="0.949219"/><stop stop-opacity="1" stop-color="rgb(57.429504%, 24.304199%, 97.149658%)" offset="0.953125"/><stop stop-opacity="1" stop-color="rgb(57.609558%, 24.403381%, 97.386169%)" offset="0.957031"/><stop stop-opacity="1" stop-color="rgb(57.791138%, 24.502563%, 97.624207%)" offset="0.960938"/><stop stop-opacity="1" stop-color="rgb(57.971191%, 24.601746%, 97.860718%)" offset="0.964844"/><stop stop-opacity="1" stop-color="rgb(58.152771%, 24.702454%, 98.098755%)" offset="0.96875"/><stop stop-opacity="1" stop-color="rgb(58.332825%, 24.801636%, 98.336792%)" offset="0.972656"/><stop stop-opacity="1" stop-color="rgb(58.514404%, 24.900818%, 98.574829%)" offset="0.976562"/><stop stop-opacity="1" stop-color="rgb(58.694458%, 25%, 98.81134%)" offset="0.980469"/><stop stop-opacity="1" stop-color="rgb(58.876038%, 25.100708%, 99.049377%)" offset="0.984375"/><stop stop-opacity="1" stop-color="rgb(59.056091%, 25.19989%, 99.285889%)" offset="0.988281"/><stop stop-opacity="1" stop-color="rgb(59.237671%, 25.300598%, 99.523926%)" offset="0.992188"/><stop stop-opacity="1" stop-color="rgb(59.417725%, 25.39978%, 99.760437%)" offset="0.996094"/><stop stop-opacity="1" stop-color="rgb(59.599304%, 25.498962%, 99.998474%)" offset="1"/></linearGradient><clipPath id="c96dfcfcf5"><path d="M 60.941406 105.742188 L 82.800781 105.742188 L 82.800781 127.601562 L 60.941406 127.601562 Z M 60.941406 105.742188 " clip-rule="nonzero"/></clipPath><clipPath id="ebbd5bb3d3"><path d="M 71.871094 105.742188 C 65.832031 105.742188 60.941406 110.632812 60.941406 116.671875 C 60.941406 122.707031 65.832031 127.601562 71.871094 127.601562 C 77.90625 127.601562 82.800781 122.707031 82.800781 116.671875 C 82.800781 110.632812 77.90625 105.742188 71.871094 105.742188 " clip-rule="nonzero"/></clipPath><clipPath id="52a155ed47"><path d="M 111.503906 105.742188 L 133.363281 105.742188 L 133.363281 127.601562 L 111.503906 127.601562 Z M 111.503906 105.742188 " clip-rule="nonzero"/></clipPath><clipPath id="85974dfcbe"><path d="M 122.433594 105.742188 C 116.394531 105.742188 111.503906 110.632812 111.503906 116.671875 C 111.503906 122.707031 116.394531 127.601562 122.433594 127.601562 C 128.46875 127.601562 133.363281 122.707031 133.363281 116.671875 C 133.363281 110.632812 128.46875 105.742188 122.433594 105.742188 " clip-rule="nonzero"/></clipPath><clipPath id="7ac268e187"><path d="M 60.941406 72.542969 L 82.800781 72.542969 L 82.800781 94.402344 L 60.941406 94.402344 Z M 60.941406 72.542969 " clip-rule="nonzero"/></clipPath><clipPath id="f97bb7d2f7"><path d="M 71.871094 72.542969 C 65.832031 72.542969 60.941406 77.4375 60.941406 83.472656 C 60.941406 89.511719 65.832031 94.402344 71.871094 94.402344 C 77.90625 94.402344 82.800781 89.511719 82.800781 83.472656 C 82.800781 77.4375 77.90625 72.542969 71.871094 72.542969 " clip-rule="nonzero"/></clipPath><clipPath id="8afc640b94"><path d="M 111.503906 72.542969 L 133.363281 72.542969 L 133.363281 94.402344 L 111.503906 94.402344 Z M 111.503906 72.542969 " clip-rule="nonzero"/></clipPath><clipPath id="6adc285596"><path d="M 122.433594 72.542969 C 116.394531 72.542969 111.503906 77.4375 111.503906 83.472656 C 111.503906 89.511719 116.394531 94.402344 122.433594 94.402344 C 128.46875 94.402344 133.363281 89.511719 133.363281 83.472656 C 133.363281 77.4375 128.46875 72.542969 122.433594 72.542969 " clip-rule="nonzero"/></clipPath><clipPath id="326611fdca"><path d="M 86.222656 45.839844 L 108.082031 45.839844 L 108.082031 67.699219 L 86.222656 67.699219 Z M 86.222656 45.839844 " clip-rule="nonzero"/></clipPath><clipPath id="652676ff6c"><path d="M 97.152344 45.839844 C 91.113281 45.839844 86.222656 50.734375 86.222656 56.769531 C 86.222656 62.804688 91.113281 67.699219 97.152344 67.699219 C 103.1875 67.699219 108.082031 62.804688 108.082031 56.769531 C 108.082031 50.734375 103.1875 45.839844 97.152344 45.839844 " clip-rule="nonzero"/></clipPath></defs><g clip-path="url(#87ffec5390)"><g clip-path="url(#ecdbe2a698)"><path fill="url(#a594b788a1)" d="M 37.914062 37.824219 L 37.914062 156.296875 L 156.386719 156.296875 L 156.386719 37.824219 Z M 37.914062 37.824219 " fill-rule="nonzero"/></g></g><g clip-path="url(#c96dfcfcf5)"><g clip-path="url(#ebbd5bb3d3)"><path fill="#ffffff" d="M 60.941406 105.742188 L 82.800781 105.742188 L 82.800781 127.601562 L 60.941406 127.601562 Z M 60.941406 105.742188 " fill-opacity="1" fill-rule="nonzero"/></g></g><g clip-path="url(#52a155ed47)"><g clip-path="url(#85974dfcbe)"><path fill="#ffffff" d="M 111.503906 105.742188 L 133.363281 105.742188 L 133.363281 127.601562 L 111.503906 127.601562 Z M 111.503906 105.742188 " fill-opacity="1" fill-rule="nonzero"/></g></g><g clip-path="url(#7ac268e187)"><g clip-path="url(#f97bb7d2f7)"><path fill="#ffffff" d="M 60.941406 72.542969 L 82.800781 72.542969 L 82.800781 94.402344 L 60.941406 94.402344 Z M 60.941406 72.542969 " fill-opacity="1" fill-rule="nonzero"/></g></g><g clip-path="url(#8afc640b94)"><g clip-path="url(#6adc285596)"><path fill="#ffffff" d="M 111.503906 72.542969 L 133.363281 72.542969 L 133.363281 94.402344 L 111.503906 94.402344 Z M 111.503906 72.542969 " fill-opacity="1" fill-rule="nonzero"/></g></g><g clip-path="url(#326611fdca)"><g clip-path="url(#652676ff6c)"><path fill="#ffffff" d="M 86.222656 45.839844 L 108.082031 45.839844 L 108.082031 67.699219 L 86.222656 67.699219 Z M 86.222656 45.839844 " fill-opacity="1" fill-rule="nonzero"/></g></g><path stroke-linecap="butt" transform="matrix(0.164062, -0.107718, 0.107658, 0.163971, 80.200543, 109.441066)" fill="none" stroke-linejoin="miter" d="M -0.00358255 7.5039 L 196.903411 7.500938 " stroke="#ffffff" stroke-width="15" stroke-opacity="1" stroke-miterlimit="4"/><path stroke-linecap="butt" transform="matrix(0.164062, 0.107718, -0.107658, 0.163971, 81.815425, 88.24415)" fill="none" stroke-linejoin="miter" d="M -0.00431814 7.495044 L 196.902675 7.498006 " stroke="#ffffff" stroke-width="15" stroke-opacity="1" stroke-miterlimit="4"/><path stroke-linecap="butt" transform="matrix(0.000000000000000012, 0.196845, -0.196155, 0.000000000000000012, 73.341466, 94.403811)" fill="none" stroke-linejoin="miter" d="M -0.00745297 7.495964 L 57.799099 7.495964 " stroke="#ffffff" stroke-width="15" stroke-opacity="1" stroke-miterlimit="4"/><path stroke-linecap="butt" transform="matrix(0.000000000000000012, 0.196845, -0.196155, 0.000000000000000012, 123.90379, 94.403811)" fill="none" stroke-linejoin="miter" d="M -0.00745297 7.495067 L 57.799099 7.495067 " stroke="#ffffff" stroke-width="15" stroke-opacity="1" stroke-miterlimit="4"/><path stroke-linecap="butt" transform="matrix(-0.134828, 0.142416, -0.142446, -0.134856, 90.70407, 65.718936)" fill="none" stroke-linejoin="miter" d="M -0.00527757 7.498033 L 76.022055 7.493682 " stroke="#ffffff" stroke-width="15" stroke-opacity="1" stroke-miterlimit="4"/><path stroke-linecap="butt" transform="matrix(0.134828, 0.142416, -0.142446, 0.134856, 105.734087, 63.696099)" fill="none" stroke-linejoin="miter" d="M -0.0076992 7.504522 L 76.019633 7.508873 " stroke="#ffffff" stroke-width="15" stroke-opacity="1" stroke-miterlimit="4"/><g fill="#ffffff" fill-opacity="1"><g transform="translate(61.808643, 141.847415)"><g><path d="M 8.046875 -2.03125 L 3.625 -2.03125 L 2.8125 0 L -0.203125 0 L 4.40625 -10.453125 L 7.3125 -10.453125 L 11.953125 0 L 8.875 0 Z M 7.1875 -4.21875 L 5.84375 -7.5625 L 4.5 -4.21875 Z M 7.1875 -4.21875 "/></g></g></g><g fill="#ffffff" fill-opacity="1"><g transform="translate(73.552417, 141.847415)"><g><path d="M 1.046875 -10.453125 L 4 -10.453125 L 4 0 L 1.046875 0 Z M 1.046875 -10.453125 "/></g></g></g><g fill="#ffffff" fill-opacity="1"><g transform="translate(78.617482, 141.847415)"><g/></g></g><g fill="#ffffff" fill-opacity="1"><g transform="translate(82.965368, 141.847415)"><g><path d="M 6.265625 0.203125 C 5.160156 0.203125 4.171875 -0.0234375 3.296875 -0.484375 C 2.429688 -0.953125 1.75 -1.597656 1.25 -2.421875 C 0.757812 -3.242188 0.515625 -4.179688 0.515625 -5.234375 C 0.515625 -6.273438 0.757812 -7.207031 1.25 -8.03125 C 1.75 -8.863281 2.429688 -9.507812 3.296875 -9.96875 C 4.171875 -10.4375 5.160156 -10.671875 6.265625 -10.671875 C 7.210938 -10.671875 8.070312 -10.5 8.84375 -10.15625 C 9.613281 -9.820312 10.25 -9.332031 10.75 -8.6875 L 8.875 -6.984375 C 8.195312 -7.804688 7.375 -8.21875 6.40625 -8.21875 C 5.84375 -8.21875 5.335938 -8.09375 4.890625 -7.84375 C 4.453125 -7.59375 4.109375 -7.238281 3.859375 -6.78125 C 3.617188 -6.332031 3.5 -5.816406 3.5 -5.234375 C 3.5 -4.640625 3.617188 -4.113281 3.859375 -3.65625 C 4.109375 -3.207031 4.453125 -2.859375 4.890625 -2.609375 C 5.335938 -2.359375 5.84375 -2.234375 6.40625 -2.234375 C 7.375 -2.234375 8.195312 -2.644531 8.875 -3.46875 L 10.75 -1.765625 C 10.25 -1.128906 9.613281 -0.640625 8.84375 -0.296875 C 8.070312 0.0351562 7.210938 0.203125 6.265625 0.203125 Z M 6.265625 0.203125 "/></g></g></g><g fill="#ffffff" fill-opacity="1"><g transform="translate(93.991967, 141.847415)"><g><path d="M 4.359375 -8.234375 C 5.703125 -8.234375 6.726562 -7.925781 7.4375 -7.3125 C 8.144531 -6.695312 8.5 -5.757812 8.5 -4.5 L 8.5 0 L 5.859375 0 L 5.859375 -1.046875 C 5.453125 -0.253906 4.65625 0.140625 3.46875 0.140625 C 2.84375 0.140625 2.300781 0.03125 1.84375 -0.1875 C 1.382812 -0.40625 1.035156 -0.703125 0.796875 -1.078125 C 0.566406 -1.453125 0.453125 -1.878906 0.453125 -2.359375 C 0.453125 -3.128906 0.742188 -3.722656 1.328125 -4.140625 C 1.910156 -4.566406 2.816406 -4.78125 4.046875 -4.78125 L 5.65625 -4.78125 C 5.613281 -5.632812 5.039062 -6.0625 3.9375 -6.0625 C 3.550781 -6.0625 3.160156 -6 2.765625 -5.875 C 2.367188 -5.75 2.03125 -5.578125 1.75 -5.359375 L 0.796875 -7.296875 C 1.242188 -7.585938 1.785156 -7.816406 2.421875 -7.984375 C 3.066406 -8.148438 3.710938 -8.234375 4.359375 -8.234375 Z M 4.25 -1.65625 C 4.582031 -1.65625 4.875 -1.734375 5.125 -1.890625 C 5.375 -2.054688 5.550781 -2.289062 5.65625 -2.59375 L 5.65625 -3.296875 L 4.4375 -3.296875 C 3.613281 -3.296875 3.203125 -3.023438 3.203125 -2.484375 C 3.203125 -2.234375 3.296875 -2.03125 3.484375 -1.875 C 3.671875 -1.726562 3.925781 -1.65625 4.25 -1.65625 Z M 4.25 -1.65625 "/></g></g></g><g fill="#ffffff" fill-opacity="1"><g transform="translate(103.375035, 141.847415)"><g><path d="M 3.859375 0.140625 C 3.179688 0.140625 2.507812 0.0625 1.84375 -0.09375 C 1.1875 -0.25 0.660156 -0.453125 0.265625 -0.703125 L 1.125 -2.640625 C 1.488281 -2.410156 1.925781 -2.226562 2.4375 -2.09375 C 2.945312 -1.957031 3.445312 -1.890625 3.9375 -1.890625 C 4.394531 -1.890625 4.722656 -1.9375 4.921875 -2.03125 C 5.117188 -2.132812 5.21875 -2.273438 5.21875 -2.453125 C 5.21875 -2.628906 5.097656 -2.753906 4.859375 -2.828125 C 4.628906 -2.898438 4.257812 -2.972656 3.75 -3.046875 C 3.101562 -3.128906 2.550781 -3.234375 2.09375 -3.359375 C 1.644531 -3.492188 1.253906 -3.734375 0.921875 -4.078125 C 0.597656 -4.421875 0.4375 -4.910156 0.4375 -5.546875 C 0.4375 -6.054688 0.585938 -6.515625 0.890625 -6.921875 C 1.203125 -7.328125 1.65625 -7.644531 2.25 -7.875 C 2.84375 -8.113281 3.550781 -8.234375 4.375 -8.234375 C 4.96875 -8.234375 5.550781 -8.171875 6.125 -8.046875 C 6.695312 -7.929688 7.179688 -7.765625 7.578125 -7.546875 L 6.71875 -5.609375 C 6 -6.015625 5.222656 -6.21875 4.390625 -6.21875 C 3.941406 -6.21875 3.613281 -6.164062 3.40625 -6.0625 C 3.195312 -5.957031 3.09375 -5.816406 3.09375 -5.640625 C 3.09375 -5.453125 3.207031 -5.320312 3.4375 -5.25 C 3.664062 -5.175781 4.046875 -5.097656 4.578125 -5.015625 C 5.242188 -4.921875 5.796875 -4.804688 6.234375 -4.671875 C 6.671875 -4.546875 7.050781 -4.3125 7.375 -3.96875 C 7.695312 -3.625 7.859375 -3.144531 7.859375 -2.53125 C 7.859375 -2.019531 7.703125 -1.5625 7.390625 -1.15625 C 7.085938 -0.75 6.632812 -0.429688 6.03125 -0.203125 C 5.425781 0.0234375 4.703125 0.140625 3.859375 0.140625 Z M 3.859375 0.140625 "/></g></g></g><g fill="#ffffff" fill-opacity="1"><g transform="translate(111.547866, 141.847415)"><g><path d="M 6.5 -0.328125 C 6.257812 -0.179688 5.96875 -0.0664062 5.625 0.015625 C 5.28125 0.0976562 4.914062 0.140625 4.53125 0.140625 C 3.46875 0.140625 2.648438 -0.117188 2.078125 -0.640625 C 1.515625 -1.160156 1.234375 -1.929688 1.234375 -2.953125 L 1.234375 -5.671875 L 0.0625 -5.671875 L 0.0625 -7.796875 L 1.234375 -7.796875 L 1.234375 -9.90625 L 4.078125 -9.90625 L 4.078125 -7.796875 L 5.9375 -7.796875 L 5.9375 -5.671875 L 4.078125 -5.671875 L 4.078125 -2.984375 C 4.078125 -2.691406 4.15625 -2.460938 4.3125 -2.296875 C 4.46875 -2.140625 4.671875 -2.0625 4.921875 -2.0625 C 5.253906 -2.0625 5.546875 -2.144531 5.796875 -2.3125 Z M 6.5 -0.328125 "/></g></g></g><g fill="#ffffff" fill-opacity="1"><g transform="translate(118.226579, 141.847415)"><g><path d="M 0.90625 -11.078125 L 3.75 -11.078125 L 3.75 0 L 0.90625 0 Z M 0.90625 -11.078125 "/></g></g></g><g fill="#ffffff" fill-opacity="1"><g transform="translate(122.903173, 141.847415)"><g><path d="M 9.1875 -4.03125 C 9.1875 -4.007812 9.171875 -3.773438 9.140625 -3.328125 L 3.25 -3.328125 C 3.375 -2.910156 3.609375 -2.585938 3.953125 -2.359375 C 4.296875 -2.140625 4.726562 -2.03125 5.25 -2.03125 C 5.632812 -2.03125 5.96875 -2.082031 6.25 -2.1875 C 6.53125 -2.300781 6.816406 -2.484375 7.109375 -2.734375 L 8.609375 -1.1875 C 7.816406 -0.300781 6.664062 0.140625 5.15625 0.140625 C 4.207031 0.140625 3.375 -0.0351562 2.65625 -0.390625 C 1.9375 -0.753906 1.378906 -1.253906 0.984375 -1.890625 C 0.597656 -2.535156 0.40625 -3.257812 0.40625 -4.0625 C 0.40625 -4.863281 0.59375 -5.578125 0.96875 -6.203125 C 1.351562 -6.835938 1.882812 -7.332031 2.5625 -7.6875 C 3.238281 -8.050781 4.003906 -8.234375 4.859375 -8.234375 C 5.660156 -8.234375 6.390625 -8.066406 7.046875 -7.734375 C 7.703125 -7.398438 8.222656 -6.914062 8.609375 -6.28125 C 8.992188 -5.644531 9.1875 -4.894531 9.1875 -4.03125 Z M 4.875 -6.21875 C 4.4375 -6.21875 4.066406 -6.09375 3.765625 -5.84375 C 3.472656 -5.59375 3.289062 -5.253906 3.21875 -4.828125 L 6.53125 -4.828125 C 6.445312 -5.253906 6.257812 -5.59375 5.96875 -5.84375 C 5.675781 -6.09375 5.3125 -6.21875 4.875 -6.21875 Z M 4.875 -6.21875 "/></g></g></g></svg>